REM DIRINDEX 1\2\5,1\2\6,1\2\7,1\2\8,1\3\9,1\3\10,1\3\11,1\4\12,1\4\13,1\4\14,1\4\15,1\4\16
REM DIRNAME cjc034,folder01,folder02,folder03,folder04,folder05,folder06,folder07,folder08,folder09,folder10,folder11,folder12,folder13,folder14,folder15
TITLE ""
FILE "1200_sec04_1252_1258.mp3" MP3
  TRACK 01 AUDIO
    TITLE "0:"
    INDEX 01 00:00:00
  TRACK 02 AUDIO
    TITLE "16:cjc034_08718"
    INDEX 01 00:00:19
  TRACK 03 AUDIO
    TITLE "0:"
    INDEX 01 00:02:71
  TRACK 04 AUDIO
    TITLE "12:cjc034_08719"
    INDEX 01 00:04:01
  TRACK 05 AUDIO
    TITLE "0:"
    INDEX 01 00:05:03
  TRACK 06 AUDIO
    TITLE "13:cjc034_08720"
    INDEX 01 00:05:32
  TRACK 07 AUDIO
    TITLE "0:"
    INDEX 01 00:07:35
  TRACK 08 AUDIO
    TITLE "14:cjc034_08721"
    INDEX 01 00:07:70
  TRACK 09 AUDIO
    TITLE "0:"
    INDEX 01 00:08:72
  TRACK 10 AUDIO
    TITLE "15:cjc034_08722"
    INDEX 01 00:09:28
  TRACK 11 AUDIO
    TITLE "0:"
    INDEX 01 00:13:00
  TRACK 12 AUDIO
    TITLE "12:cjc034_08723"
    INDEX 01 00:14:33
  TRACK 13 AUDIO
    TITLE "0:"
    INDEX 01 00:15:44
  TRACK 14 AUDIO
    TITLE "13:cjc034_08724"
    INDEX 01 00:16:04
  TRACK 15 AUDIO
    TITLE "0:"
    INDEX 01 00:18:11
  TRACK 16 AUDIO
    TITLE "14:cjc034_08725"
    INDEX 01 00:18:46
  TRACK 17 AUDIO
    TITLE "0:"
    INDEX 01 00:19:60
  TRACK 18 AUDIO
    TITLE "15:cjc034_08726"
    INDEX 01 00:20:18
  TRACK 19 AUDIO
    TITLE "0:"
    INDEX 01 00:24:20
  TRACK 20 AUDIO
    TITLE "12:cjc034_08727"
    INDEX 01 00:25:54
  TRACK 21 AUDIO
    TITLE "0:"
    INDEX 01 00:26:62
  TRACK 22 AUDIO
    TITLE "13:cjc034_08728"
    INDEX 01 00:27:20
  TRACK 23 AUDIO
    TITLE "0:"
    INDEX 01 00:29:21
  TRACK 24 AUDIO
    TITLE "14:cjc034_08729"
    INDEX 01 00:29:52
  TRACK 25 AUDIO
    TITLE "0:"
    INDEX 01 00:30:59
  TRACK 26 AUDIO
    TITLE "15:cjc034_08730"
    INDEX 01 00:31:16
  TRACK 27 AUDIO
    TITLE "0:"
    INDEX 01 00:37:32
  TRACK 28 AUDIO
    TITLE "12:cjc034_08731"
    INDEX 01 00:38:63
  TRACK 29 AUDIO
    TITLE "0:"
    INDEX 01 00:39:68
  TRACK 30 AUDIO
    TITLE "13:cjc034_08732"
    INDEX 01 00:40:26
  TRACK 31 AUDIO
    TITLE "0:"
    INDEX 01 00:43:62
  TRACK 32 AUDIO
    TITLE "14:cjc034_08733"
    INDEX 01 00:44:20
  TRACK 33 AUDIO
    TITLE "0:"
    INDEX 01 00:45:26
  TRACK 34 AUDIO
    TITLE "15:cjc034_08734"
    INDEX 01 00:45:59
  TRACK 35 AUDIO
    TITLE "0:"
    INDEX 01 00:51:11
  TRACK 36 AUDIO
    TITLE "16:cjc034_08735"
    INDEX 01 00:52:41
  TRACK 37 AUDIO
    TITLE "0:"
    INDEX 01 00:55:30
  TRACK 38 AUDIO
    TITLE "12:cjc034_08736"
    INDEX 01 00:56:35
  TRACK 39 AUDIO
    TITLE "0:"
    INDEX 01 00:57:54
  TRACK 40 AUDIO
    TITLE "13:cjc034_08737"
    INDEX 01 00:58:13
  TRACK 41 AUDIO
    TITLE "0:"
    INDEX 01 01:02:06
  TRACK 42 AUDIO
    TITLE "14:cjc034_08738"
    INDEX 01 01:02:38
  TRACK 43 AUDIO
    TITLE "0:"
    INDEX 01 01:03:59
  TRACK 44 AUDIO
    TITLE "15:cjc034_08739"
    INDEX 01 01:04:17
  TRACK 45 AUDIO
    TITLE "0:"
    INDEX 01 01:08:15
  TRACK 46 AUDIO
    TITLE "12:cjc034_08740"
    INDEX 01 01:09:50
  TRACK 47 AUDIO
    TITLE "0:"
    INDEX 01 01:11:00
  TRACK 48 AUDIO
    TITLE "13:cjc034_08741"
    INDEX 01 01:11:31
  TRACK 49 AUDIO
    TITLE "0:"
    INDEX 01 01:13:61
  TRACK 50 AUDIO
    TITLE "14:cjc034_08742"
    INDEX 01 01:14:17
  TRACK 51 AUDIO
    TITLE "0:"
    INDEX 01 01:15:42
  TRACK 52 AUDIO
    TITLE "15:cjc034_08743"
    INDEX 01 01:15:74
  TRACK 53 AUDIO
    TITLE "0:"
    INDEX 01 01:21:47
  TRACK 54 AUDIO
    TITLE "12:cjc034_08744"
    INDEX 01 01:23:03
  TRACK 55 AUDIO
    TITLE "0:"
    INDEX 01 01:24:14
  TRACK 56 AUDIO
    TITLE "13:cjc034_08745"
    INDEX 01 01:24:49
  TRACK 57 AUDIO
    TITLE "0:"
    INDEX 01 01:26:74
  TRACK 58 AUDIO
    TITLE "14:cjc034_08746"
    INDEX 01 01:27:30
  TRACK 59 AUDIO
    TITLE "0:"
    INDEX 01 01:28:39
  TRACK 60 AUDIO
    TITLE "15:cjc034_08747"
    INDEX 01 01:28:74
  TRACK 61 AUDIO
    TITLE "0:"
    INDEX 01 01:34:06
